/* XPM */
static char * dspectral_mini_xpm[] = {
"16 16 99 2",
"  	c None",
". 	c #5B5B5B",
"+ 	c #DADADA",
"@ 	c #B8B8B8",
"# 	c #848484",
"$ 	c #8F8F8F",
"% 	c #909090",
"& 	c #8A8A8A",
"* 	c #646466",
"= 	c #1C1B19",
"- 	c #0C0C0A",
"; 	c #B1B1B1",
"> 	c #1C1D1D",
", 	c #1C1B1B",
"' 	c #1E1F1D",
") 	c #141414",
"! 	c #1C1D1B",
"~ 	c #2B2A2A",
"{ 	c #0E0E0F",
"] 	c #060605",
"^ 	c #080806",
"/ 	c #4E4E4E",
"( 	c #0B0B0B",
"_ 	c #1E1D19",
": 	c #272623",
"< 	c #282623",
"[ 	c #211D1B",
"} 	c #3B362B",
"| 	c #4A4133",
"1 	c #3D352A",
"2 	c #252119",
"3 	c #C0BDB8",
"4 	c #1B1915",
"5 	c #222222",
"6 	c #24221A",
"7 	c #413E34",
"8 	c #4D4432",
"9 	c #474136",
"0 	c #4E4535",
"a 	c #4E4533",
"b 	c #3A3226",
"c 	c #464030",
"d 	c #B8B8B7",
"e 	c #151311",
"f 	c #171717",
"g 	c #030303",
"h 	c #2A271E",
"i 	c #000CFF",
"j 	c #433B2F",
"k 	c #2A2A2A",
"l 	c #050505",
"m 	c #5B5343",
"n 	c #5F5849",
"o 	c #474035",
"p 	c #393939",
"q 	c #070707",
"r 	c #5D594B",
"s 	c #413B2D",
"t 	c #494030",
"u 	c #474031",
"v 	c #585040",
"w 	c #4B4333",
"x 	c #4F493C",
"y 	c #4C4433",
"z 	c #D3D1CF",
"A 	c #191714",
"B 	c #353535",
"C 	c #070606",
"D 	c #5F5748",
"E 	c #2B2B2B",
"F 	c #645F57",
"G 	c #453B2D",
"H 	c #423B2F",
"I 	c #A49D95",
"J 	c #1F1C18",
"K 	c #3A3227",
"L 	c #3F372C",
"M 	c #5F5950",
"N 	c #393125",
"O 	c #383228",
"P 	c #322D22",
"Q 	c #9C9A93",
"R 	c #252422",
"S 	c #67635D",
"T 	c #5B5A55",
"U 	c #6F6862",
"V 	c #62605D",
"W 	c #817F75",
"X 	c #737269",
"Y 	c #939593",
"Z 	c #040403",
"` 	c #1C1C16",
" .	c #161511",
"..	c #151412",
"+.	c #090807",
"@.	c #151514",
"#.	c #1E1C1A",
"$.	c #0C0B09",
"%.	c #121110",
". . . . . . . . . . . . . . . . ",
". + @ # $ % & % # $ % # * = - . ",
". ; > , ' ) ! ) ~ ' ) ~ { ] ^ . ",
". / ( _ : < [ } | 1 2 1 2 3 4 . ",
". 5 ( 6 7 8 9 0 a a b c b d e . ",
". f g h 8 8 8 i j a a 1 2 3 4 . ",
". k l 8 i m n i o 2 a 1 2 d e . ",
". p q 8 i a i i r s t u v 3 4 . ",
". 5 l w i i i i 8 x y i 8 z A . ",
". B C a i i i i i 8 D i 8 d e . ",
". E l } i i i i i a i i F 3 4 . ",
". k l G i i i i i i i i H I J . ",
". p q K L M N O P K L O P Q R . ",
". E l S T U S V W U S V X Y Z . ",
". `  ...+. ...@.`  ...@.#.$.%.. ",
". . . . . . . . . . . . . . . . "};
